<!DOCTYPE svg PUBLIC "-//W3C//DTD SVG 1.1//EN" "http://www.w3.org/Graphics/SVG/1.1/DTD/svg11.dtd">

<!-- Uploaded to: SVG Repo, www.svgrepo.com, Transformed by: SVG Repo Mixer Tools -->
<svg fill="#000000" height="50px" width="80px" version="1.1" id="Layer_1" xmlns="http://www.w3.org/2000/svg" xmlns:xlink="http://www.w3.org/1999/xlink" viewBox="0 0 512 512" xml:space="preserve">

<g id="SVGRepo_bgCarrier" stroke-width="0"/>

<g id="SVGRepo_tracerCarrier" stroke-linecap="round" stroke-linejoin="round" stroke="#CCCCCC" stroke-width="31.744"> <g> <g> <path d="M469.333,85.675V42.667h21.333c11.797,0,21.333-9.557,21.333-21.333S502.464,0,490.667,0h-85.333 C393.536,0,384,9.557,384,21.333s9.536,21.333,21.333,21.333h21.333v43.008C402.88,87.381,384,107.093,384,131.307v27.968 l-20.907,14.037v-23.979c0-11.776-9.557-21.333-21.333-21.333H171.093c-11.797,0-21.333,9.557-21.333,21.333v24.299L128,159.211 v-27.904c0-24.213-18.88-43.925-42.667-45.632V42.667h21.333c11.797,0,21.333-9.557,21.333-21.333S118.464,0,106.667,0H21.333 C9.536,0,0,9.557,0,21.333s9.536,21.333,21.333,21.333h21.333v43.008C18.88,87.381,0,107.093,0,131.307v142.72 C0,299.371,20.629,320,45.952,320h36.096C107.371,320,128,299.371,128,274.027v-63.659l21.76,14.421v52.544 c0,0.277,0.128,0.491,0.149,0.768c-3.2,2.667-6.507,5.12-9.387,8.277c-39.701,43.392-33.621,117.696-33.365,120.832 c0.981,11.093,10.304,19.456,21.248,19.456c0.619,0,1.259-0.021,1.877-0.085c11.755-1.045,20.416-11.392,19.392-23.125 c-0.043-0.597-4.416-59.051,22.315-88.256c10.176-11.136,23.851-16.533,41.771-16.533h21.227l-0.213,42.667H192 c-11.797,0-21.333,9.557-21.333,21.333v128c0,11.776,9.536,21.333,21.333,21.333h128c11.797,0,21.333-9.557,21.333-21.333v-128 c0-11.776-9.536-21.333-21.333-21.333h-42.56l0.213-42.667h21.44c17.856,0,31.509,5.376,41.685,16.448 c22.4,24.405,23.765,72,22.379,88.341c-1.024,11.733,7.659,22.08,19.392,23.125c0.619,0.064,1.259,0.085,1.899,0.085 c10.923,0,20.245-8.363,21.227-19.456c0.256-3.136,6.336-77.44-33.365-120.832c-2.88-3.157-6.187-5.611-9.387-8.277 c0.021-0.277,0.171-0.491,0.171-0.768v-52.608L384,210.688v63.339C384,299.371,404.629,320,429.952,320h36.096 C491.371,320,512,299.371,512,274.027v-142.72C512,107.093,493.12,87.381,469.333,85.675z M256,448 c-11.776,0-21.333-9.557-21.333-21.333s9.557-21.333,21.333-21.333s21.333,9.557,21.333,21.333S267.776,448,256,448z"/> </g> </g> </g>

<g id="SVGRepo_iconCarrier"> <g> <g> <path d="M469.333,85.675V42.667h21.333c11.797,0,21.333-9.557,21.333-21.333S502.464,0,490.667,0h-85.333 C393.536,0,384,9.557,384,21.333s9.536,21.333,21.333,21.333h21.333v43.008C402.88,87.381,384,107.093,384,131.307v27.968 l-20.907,14.037v-23.979c0-11.776-9.557-21.333-21.333-21.333H171.093c-11.797,0-21.333,9.557-21.333,21.333v24.299L128,159.211 v-27.904c0-24.213-18.88-43.925-42.667-45.632V42.667h21.333c11.797,0,21.333-9.557,21.333-21.333S118.464,0,106.667,0H21.333 C9.536,0,0,9.557,0,21.333s9.536,21.333,21.333,21.333h21.333v43.008C18.88,87.381,0,107.093,0,131.307v142.72 C0,299.371,20.629,320,45.952,320h36.096C107.371,320,128,299.371,128,274.027v-63.659l21.76,14.421v52.544 c0,0.277,0.128,0.491,0.149,0.768c-3.2,2.667-6.507,5.12-9.387,8.277c-39.701,43.392-33.621,117.696-33.365,120.832 c0.981,11.093,10.304,19.456,21.248,19.456c0.619,0,1.259-0.021,1.877-0.085c11.755-1.045,20.416-11.392,19.392-23.125 c-0.043-0.597-4.416-59.051,22.315-88.256c10.176-11.136,23.851-16.533,41.771-16.533h21.227l-0.213,42.667H192 c-11.797,0-21.333,9.557-21.333,21.333v128c0,11.776,9.536,21.333,21.333,21.333h128c11.797,0,21.333-9.557,21.333-21.333v-128 c0-11.776-9.536-21.333-21.333-21.333h-42.56l0.213-42.667h21.44c17.856,0,31.509,5.376,41.685,16.448 c22.4,24.405,23.765,72,22.379,88.341c-1.024,11.733,7.659,22.08,19.392,23.125c0.619,0.064,1.259,0.085,1.899,0.085 c10.923,0,20.245-8.363,21.227-19.456c0.256-3.136,6.336-77.44-33.365-120.832c-2.88-3.157-6.187-5.611-9.387-8.277 c0.021-0.277,0.171-0.491,0.171-0.768v-52.608L384,210.688v63.339C384,299.371,404.629,320,429.952,320h36.096 C491.371,320,512,299.371,512,274.027v-142.72C512,107.093,493.12,87.381,469.333,85.675z M256,448 c-11.776,0-21.333-9.557-21.333-21.333s9.557-21.333,21.333-21.333s21.333,9.557,21.333,21.333S267.776,448,256,448z"/> </g> </g> </g>

</svg>
